<mxfile modified="2023-07-08T22:28:51.890Z" host="Electron" agent="Mozilla/5.0 (Windows NT 10.0; Win64; x64) AppleWebKit/537.36 (KHTML, like Gecko) draw.io/21.6.1 Chrome/112.0.5615.204 Electron/24.6.1 Safari/537.36" etag="g_vGcdrv9eIcCnCXB9wR" version="21.6.1" type="device">
  <diagram id="Ht1M8jgEwFfnCIfOTk4-" name="Page-1">
    <mxGraphModel dx="1418" dy="1647" grid="1" gridSize="10" guides="1" tooltips="1" connect="1" arrows="1" fold="1" page="1" pageScale="1" pageWidth="1169" pageHeight="827" math="0" shadow="0">
      <root>
        <mxCell id="0" />
        <mxCell id="1" parent="0" />
        <mxCell id="UEzPUAAOIrF-is8g5C7q-175" value="AWS Cloud" style="points=[[0,0],[0.25,0],[0.5,0],[0.75,0],[1,0],[1,0.25],[1,0.5],[1,0.75],[1,1],[0.75,1],[0.5,1],[0.25,1],[0,1],[0,0.75],[0,0.5],[0,0.25]];outlineConnect=0;gradientColor=none;html=1;whiteSpace=wrap;fontSize=12;fontStyle=0;shape=mxgraph.aws4.group;grIcon=mxgraph.aws4.group_aws_cloud_alt;strokeColor=#232F3E;fillColor=none;verticalAlign=top;align=left;spacingLeft=30;fontColor=#232F3E;dashed=0;labelBackgroundColor=#ffffff;container=1;pointerEvents=0;collapsible=0;recursiveResize=0;" parent="1" vertex="1">
          <mxGeometry x="200" y="-760" width="760" height="720" as="geometry" />
        </mxCell>
        <mxCell id="aqIrYoPz6lUusKAyCM6y-29" value="" style="edgeStyle=orthogonalEdgeStyle;rounded=0;orthogonalLoop=1;jettySize=auto;html=1;" edge="1" parent="UEzPUAAOIrF-is8g5C7q-175" source="aqIrYoPz6lUusKAyCM6y-4" target="aqIrYoPz6lUusKAyCM6y-10">
          <mxGeometry relative="1" as="geometry" />
        </mxCell>
        <mxCell id="aqIrYoPz6lUusKAyCM6y-4" value="Internet Gateway" style="sketch=0;outlineConnect=0;fontColor=#232F3E;gradientColor=none;fillColor=#4D27AA;strokeColor=none;dashed=0;verticalLabelPosition=bottom;verticalAlign=top;align=center;html=1;fontSize=12;fontStyle=0;aspect=fixed;pointerEvents=1;shape=mxgraph.aws4.internet_gateway;" vertex="1" parent="UEzPUAAOIrF-is8g5C7q-175">
          <mxGeometry x="341" y="10" width="78" height="78" as="geometry" />
        </mxCell>
        <mxCell id="aqIrYoPz6lUusKAyCM6y-5" value="VPC" style="points=[[0,0],[0.25,0],[0.5,0],[0.75,0],[1,0],[1,0.25],[1,0.5],[1,0.75],[1,1],[0.75,1],[0.5,1],[0.25,1],[0,1],[0,0.75],[0,0.5],[0,0.25]];outlineConnect=0;gradientColor=none;html=1;whiteSpace=wrap;fontSize=12;fontStyle=0;container=1;pointerEvents=0;collapsible=0;recursiveResize=0;shape=mxgraph.aws4.group;grIcon=mxgraph.aws4.group_vpc;strokeColor=#248814;fillColor=none;verticalAlign=top;align=left;spacingLeft=30;fontColor=#AAB7B8;dashed=0;" vertex="1" parent="UEzPUAAOIrF-is8g5C7q-175">
          <mxGeometry x="40" y="120" width="680" height="590" as="geometry" />
        </mxCell>
        <mxCell id="aqIrYoPz6lUusKAyCM6y-7" value="Public subnet" style="points=[[0,0],[0.25,0],[0.5,0],[0.75,0],[1,0],[1,0.25],[1,0.5],[1,0.75],[1,1],[0.75,1],[0.5,1],[0.25,1],[0,1],[0,0.75],[0,0.5],[0,0.25]];outlineConnect=0;gradientColor=none;html=1;whiteSpace=wrap;fontSize=12;fontStyle=0;container=1;pointerEvents=0;collapsible=0;recursiveResize=0;shape=mxgraph.aws4.group;grIcon=mxgraph.aws4.group_security_group;grStroke=0;strokeColor=#248814;fillColor=#E9F3E6;verticalAlign=top;align=left;spacingLeft=30;fontColor=#248814;dashed=0;" vertex="1" parent="aqIrYoPz6lUusKAyCM6y-5">
          <mxGeometry x="40" y="40" width="260" height="240" as="geometry" />
        </mxCell>
        <mxCell id="aqIrYoPz6lUusKAyCM6y-12" value="EC2" style="outlineConnect=0;dashed=0;verticalLabelPosition=bottom;verticalAlign=top;align=center;html=1;shape=mxgraph.aws3.ec2;fillColor=#F58534;gradientColor=none;" vertex="1" parent="aqIrYoPz6lUusKAyCM6y-7">
          <mxGeometry x="81.75" y="73.5" width="76.5" height="93" as="geometry" />
        </mxCell>
        <mxCell id="aqIrYoPz6lUusKAyCM6y-8" value="Private subnet" style="points=[[0,0],[0.25,0],[0.5,0],[0.75,0],[1,0],[1,0.25],[1,0.5],[1,0.75],[1,1],[0.75,1],[0.5,1],[0.25,1],[0,1],[0,0.75],[0,0.5],[0,0.25]];outlineConnect=0;gradientColor=none;html=1;whiteSpace=wrap;fontSize=12;fontStyle=0;container=1;pointerEvents=0;collapsible=0;recursiveResize=0;shape=mxgraph.aws4.group;grIcon=mxgraph.aws4.group_security_group;grStroke=0;strokeColor=#147EBA;fillColor=#E6F2F8;verticalAlign=top;align=left;spacingLeft=30;fontColor=#147EBA;dashed=0;" vertex="1" parent="aqIrYoPz6lUusKAyCM6y-5">
          <mxGeometry x="40" y="320" width="240" height="240" as="geometry" />
        </mxCell>
        <mxCell id="aqIrYoPz6lUusKAyCM6y-13" value="RDS" style="outlineConnect=0;dashed=0;verticalLabelPosition=bottom;verticalAlign=top;align=center;html=1;shape=mxgraph.aws3.rds;fillColor=#2E73B8;gradientColor=none;" vertex="1" parent="aqIrYoPz6lUusKAyCM6y-8">
          <mxGeometry x="84" y="79.5" width="72" height="81" as="geometry" />
        </mxCell>
        <mxCell id="aqIrYoPz6lUusKAyCM6y-31" value="" style="edgeStyle=orthogonalEdgeStyle;rounded=0;orthogonalLoop=1;jettySize=auto;html=1;" edge="1" parent="aqIrYoPz6lUusKAyCM6y-5" source="aqIrYoPz6lUusKAyCM6y-10" target="aqIrYoPz6lUusKAyCM6y-12">
          <mxGeometry relative="1" as="geometry" />
        </mxCell>
        <mxCell id="aqIrYoPz6lUusKAyCM6y-10" value="Application Load&lt;br&gt;Balancer" style="outlineConnect=0;dashed=0;verticalLabelPosition=bottom;verticalAlign=top;align=center;html=1;shape=mxgraph.aws3.application_load_balancer;fillColor=#F58534;gradientColor=none;" vertex="1" parent="aqIrYoPz6lUusKAyCM6y-5">
          <mxGeometry x="305.5" y="40" width="69" height="72" as="geometry" />
        </mxCell>
        <mxCell id="aqIrYoPz6lUusKAyCM6y-22" value="Public subnet" style="points=[[0,0],[0.25,0],[0.5,0],[0.75,0],[1,0],[1,0.25],[1,0.5],[1,0.75],[1,1],[0.75,1],[0.5,1],[0.25,1],[0,1],[0,0.75],[0,0.5],[0,0.25]];outlineConnect=0;gradientColor=none;html=1;whiteSpace=wrap;fontSize=12;fontStyle=0;container=1;pointerEvents=0;collapsible=0;recursiveResize=0;shape=mxgraph.aws4.group;grIcon=mxgraph.aws4.group_security_group;grStroke=0;strokeColor=#248814;fillColor=#E9F3E6;verticalAlign=top;align=left;spacingLeft=30;fontColor=#248814;dashed=0;" vertex="1" parent="aqIrYoPz6lUusKAyCM6y-5">
          <mxGeometry x="400" y="40" width="260" height="240" as="geometry" />
        </mxCell>
        <mxCell id="aqIrYoPz6lUusKAyCM6y-23" value="EC2" style="outlineConnect=0;dashed=0;verticalLabelPosition=bottom;verticalAlign=top;align=center;html=1;shape=mxgraph.aws3.ec2;fillColor=#F58534;gradientColor=none;" vertex="1" parent="aqIrYoPz6lUusKAyCM6y-22">
          <mxGeometry x="81.75" y="73.5" width="76.5" height="93" as="geometry" />
        </mxCell>
        <mxCell id="aqIrYoPz6lUusKAyCM6y-35" value="" style="shape=mxgraph.mockup.markup.redX;fillColor=#ff0000;html=1;shadow=0;whiteSpace=wrap;strokeColor=none;" vertex="1" parent="aqIrYoPz6lUusKAyCM6y-22">
          <mxGeometry x="10" width="240" height="240" as="geometry" />
        </mxCell>
        <mxCell id="aqIrYoPz6lUusKAyCM6y-24" value="Private subnet" style="points=[[0,0],[0.25,0],[0.5,0],[0.75,0],[1,0],[1,0.25],[1,0.5],[1,0.75],[1,1],[0.75,1],[0.5,1],[0.25,1],[0,1],[0,0.75],[0,0.5],[0,0.25]];outlineConnect=0;gradientColor=none;html=1;whiteSpace=wrap;fontSize=12;fontStyle=0;container=1;pointerEvents=0;collapsible=0;recursiveResize=0;shape=mxgraph.aws4.group;grIcon=mxgraph.aws4.group_security_group;grStroke=0;strokeColor=#147EBA;fillColor=#E6F2F8;verticalAlign=top;align=left;spacingLeft=30;fontColor=#147EBA;dashed=0;" vertex="1" parent="aqIrYoPz6lUusKAyCM6y-5">
          <mxGeometry x="400" y="320" width="240" height="240" as="geometry" />
        </mxCell>
        <mxCell id="aqIrYoPz6lUusKAyCM6y-25" value="RDS" style="outlineConnect=0;dashed=0;verticalLabelPosition=bottom;verticalAlign=top;align=center;html=1;shape=mxgraph.aws3.rds;fillColor=#2E73B8;gradientColor=none;" vertex="1" parent="aqIrYoPz6lUusKAyCM6y-24">
          <mxGeometry x="84" y="79.5" width="72" height="81" as="geometry" />
        </mxCell>
        <mxCell id="aqIrYoPz6lUusKAyCM6y-36" value="" style="shape=mxgraph.mockup.markup.redX;fillColor=#ff0000;html=1;shadow=0;whiteSpace=wrap;strokeColor=none;" vertex="1" parent="aqIrYoPz6lUusKAyCM6y-24">
          <mxGeometry width="240" height="240" as="geometry" />
        </mxCell>
        <mxCell id="aqIrYoPz6lUusKAyCM6y-34" value="" style="edgeStyle=orthogonalEdgeStyle;rounded=0;orthogonalLoop=1;jettySize=auto;html=1;exitX=0.5;exitY=1;exitDx=0;exitDy=0;exitPerimeter=0;" edge="1" parent="aqIrYoPz6lUusKAyCM6y-5" source="aqIrYoPz6lUusKAyCM6y-12" target="aqIrYoPz6lUusKAyCM6y-13">
          <mxGeometry relative="1" as="geometry">
            <mxPoint x="350" y="-22" as="sourcePoint" />
            <mxPoint x="350" y="50" as="targetPoint" />
            <Array as="points">
              <mxPoint x="160" y="310" />
              <mxPoint x="160" y="310" />
            </Array>
          </mxGeometry>
        </mxCell>
        <mxCell id="aqIrYoPz6lUusKAyCM6y-30" value="" style="edgeStyle=orthogonalEdgeStyle;rounded=0;orthogonalLoop=1;jettySize=auto;html=1;" edge="1" parent="aqIrYoPz6lUusKAyCM6y-5" source="aqIrYoPz6lUusKAyCM6y-10" target="aqIrYoPz6lUusKAyCM6y-23">
          <mxGeometry relative="1" as="geometry" />
        </mxCell>
        <mxCell id="aqIrYoPz6lUusKAyCM6y-1" value="&lt;font color=&quot;#000000&quot;&gt;Client&lt;/font&gt;" style="fontColor=#0066CC;verticalAlign=top;verticalLabelPosition=bottom;labelPosition=center;align=center;html=1;outlineConnect=0;fillColor=#CCCCCC;strokeColor=#6881B3;gradientColor=none;gradientDirection=north;strokeWidth=2;shape=mxgraph.networks.pc;" vertex="1" parent="1">
          <mxGeometry x="1030" y="-520" width="100" height="70" as="geometry" />
        </mxCell>
        <mxCell id="aqIrYoPz6lUusKAyCM6y-27" value="" style="edgeStyle=orthogonalEdgeStyle;rounded=0;orthogonalLoop=1;jettySize=auto;html=1;" edge="1" parent="1" source="aqIrYoPz6lUusKAyCM6y-2" target="aqIrYoPz6lUusKAyCM6y-4">
          <mxGeometry relative="1" as="geometry">
            <mxPoint x="1080" y="-795" as="targetPoint" />
            <Array as="points">
              <mxPoint x="1080" y="-820" />
              <mxPoint x="580" y="-820" />
            </Array>
          </mxGeometry>
        </mxCell>
        <mxCell id="aqIrYoPz6lUusKAyCM6y-2" value="internet" style="image;aspect=fixed;perimeter=ellipsePerimeter;html=1;align=center;shadow=0;dashed=0;spacingTop=3;image=img/lib/active_directory/internet_globe.svg;" vertex="1" parent="1">
          <mxGeometry x="1055" y="-720" width="50" height="50" as="geometry" />
        </mxCell>
        <mxCell id="aqIrYoPz6lUusKAyCM6y-3" value="" style="endArrow=classic;html=1;rounded=0;entryX=0.5;entryY=1;entryDx=0;entryDy=0;" edge="1" parent="1" target="aqIrYoPz6lUusKAyCM6y-2">
          <mxGeometry width="50" height="50" relative="1" as="geometry">
            <mxPoint x="1080" y="-520" as="sourcePoint" />
            <mxPoint x="610" y="-520" as="targetPoint" />
          </mxGeometry>
        </mxCell>
      </root>
    </mxGraphModel>
  </diagram>
</mxfile>
